solid ASCII
  facet normal -7.071068e-01 7.071068e-01 0.000000e+00
    outer loop
      vertex   2.674412e+01 1.900000e+01 -2.373528e+01
      vertex   2.674412e+01 1.900000e+01 -1.823528e+01
      vertex   2.774412e+01 2.000000e+01 -2.373528e+01
    endloop
  endfacet
  facet normal -7.071068e-01 7.071068e-01 0.000000e+00
    outer loop
      vertex   2.774412e+01 2.000000e+01 -2.373528e+01
      vertex   2.674412e+01 1.900000e+01 -1.823528e+01
      vertex   2.774412e+01 2.000000e+01 -1.823528e+01
    endloop
  endfacet
  facet normal 0.000000e+00 1.000000e+00 0.000000e+00
    outer loop
      vertex   2.774412e+01 2.000000e+01 -2.373528e+01
      vertex   2.774412e+01 2.000000e+01 -1.823528e+01
      vertex   3.234412e+01 2.000000e+01 -2.373528e+01
    endloop
  endfacet
  facet normal 0.000000e+00 1.000000e+00 -0.000000e+00
    outer loop
      vertex   3.234412e+01 2.000000e+01 -2.373528e+01
      vertex   2.774412e+01 2.000000e+01 -1.823528e+01
      vertex   3.234412e+01 2.000000e+01 -1.823528e+01
    endloop
  endfacet
  facet normal 0.000000e+00 0.000000e+00 1.000000e+00
    outer loop
      vertex   3.234412e+01 2.000000e+01 -1.823528e+01
      vertex   2.774412e+01 2.000000e+01 -1.823528e+01
      vertex   2.874412e+01 1.815000e+01 -1.823528e+01
    endloop
  endfacet
  facet normal 2.306147e-15 1.246566e-15 1.000000e+00
    outer loop
      vertex   2.874412e+01 1.815000e+01 -1.823528e+01
      vertex   2.774412e+01 2.000000e+01 -1.823528e+01
      vertex   2.674412e+01 1.900000e+01 -1.823528e+01
    endloop
  endfacet
  facet normal 1.776357e-15 0.000000e+00 1.000000e+00
    outer loop
      vertex   2.874412e+01 1.815000e+01 -1.823528e+01
      vertex   2.674412e+01 1.900000e+01 -1.823528e+01
      vertex   2.674412e+01 -9.999998e-01 -1.823528e+01
    endloop
  endfacet
  facet normal -8.250838e-17 1.941374e-16 1.000000e+00
    outer loop
      vertex   2.874412e+01 1.815000e+01 -1.823528e+01
      vertex   2.674412e+01 -9.999998e-01 -1.823528e+01
      vertex   2.874412e+01 -1.499998e-01 -1.823528e+01
    endloop
  endfacet
  facet normal 0.000000e+00 0.000000e+00 1.000000e+00
    outer loop
      vertex   2.874412e+01 -1.499998e-01 -1.823528e+01
      vertex   2.674412e+01 -9.999998e-01 -1.823528e+01
      vertex   2.774412e+01 -2.000000e+00 -1.823528e+01
    endloop
  endfacet
  facet normal 0.000000e+00 0.000000e+00 1.000000e+00
    outer loop
      vertex   2.874412e+01 -1.499998e-01 -1.823528e+01
      vertex   2.774412e+01 -2.000000e+00 -1.823528e+01
      vertex   3.234412e+01 -2.000000e+00 -1.823528e+01
    endloop
  endfacet
  facet normal 0.000000e+00 -0.000000e+00 1.000000e+00
    outer loop
      vertex   3.334412e+01 -9.999998e-01 -1.823528e+01
      vertex   3.334412e+01 1.000000e+00 -1.823528e+01
      vertex   3.234412e+01 -2.000000e+00 -1.823528e+01
    endloop
  endfacet
  facet normal 0.000000e+00 0.000000e+00 1.000000e+00
    outer loop
      vertex   3.234412e+01 -2.000000e+00 -1.823528e+01
      vertex   3.334412e+01 1.000000e+00 -1.823528e+01
      vertex   3.234412e+01 2.000000e+00 -1.823528e+01
    endloop
  endfacet
  facet normal 0.000000e+00 -0.000000e+00 1.000000e+00
    outer loop
      vertex   3.234412e+01 -2.000000e+00 -1.823528e+01
      vertex   3.234412e+01 2.000000e+00 -1.823528e+01
      vertex   3.134412e+01 -1.499998e-01 -1.823528e+01
    endloop
  endfacet
  facet normal 0.000000e+00 0.000000e+00 1.000000e+00
    outer loop
      vertex   3.134412e+01 -1.499998e-01 -1.823528e+01
      vertex   3.234412e+01 2.000000e+00 -1.823528e+01
      vertex   3.134412e+01 2.000000e+00 -1.823528e+01
    endloop
  endfacet
  facet normal 0.000000e+00 0.000000e+00 1.000000e+00
    outer loop
      vertex   3.134412e+01 -1.499998e-01 -1.823528e+01
      vertex   2.874412e+01 -1.499998e-01 -1.823528e+01
      vertex   3.234412e+01 -2.000000e+00 -1.823528e+01
    endloop
  endfacet
  facet normal 0.000000e+00 0.000000e+00 1.000000e+00
    outer loop
      vertex   2.874412e+01 1.815000e+01 -1.823528e+01
      vertex   3.134412e+01 1.815000e+01 -1.823528e+01
      vertex   3.234412e+01 2.000000e+01 -1.823528e+01
    endloop
  endfacet
  facet normal 0.000000e+00 0.000000e+00 1.000000e+00
    outer loop
      vertex   3.234412e+01 2.000000e+01 -1.823528e+01
      vertex   3.134412e+01 1.815000e+01 -1.823528e+01
      vertex   3.234412e+01 1.600000e+01 -1.823528e+01
    endloop
  endfacet
  facet normal 0.000000e+00 0.000000e+00 1.000000e+00
    outer loop
      vertex   3.234412e+01 2.000000e+01 -1.823528e+01
      vertex   3.234412e+01 1.600000e+01 -1.823528e+01
      vertex   3.334412e+01 1.900000e+01 -1.823528e+01
    endloop
  endfacet
  facet normal 0.000000e+00 0.000000e+00 1.000000e+00
    outer loop
      vertex   3.334412e+01 1.900000e+01 -1.823528e+01
      vertex   3.234412e+01 1.600000e+01 -1.823528e+01
      vertex   3.334412e+01 1.700000e+01 -1.823528e+01
    endloop
  endfacet
  facet normal 0.000000e+00 0.000000e+00 1.000000e+00
    outer loop
      vertex   3.134412e+01 1.815000e+01 -1.823528e+01
      vertex   3.134412e+01 1.600000e+01 -1.823528e+01
      vertex   3.234412e+01 1.600000e+01 -1.823528e+01
    endloop
  endfacet
  facet normal -7.071068e-01 -7.071068e-01 -0.000000e+00
    outer loop
      vertex   2.674412e+01 -9.999998e-01 -1.823528e+01
      vertex   2.674412e+01 -9.999998e-01 -2.373528e+01
      vertex   2.774412e+01 -2.000000e+00 -1.823528e+01
    endloop
  endfacet
  facet normal -7.071068e-01 -7.071068e-01 -0.000000e+00
    outer loop
      vertex   2.774412e+01 -2.000000e+00 -1.823528e+01
      vertex   2.674412e+01 -9.999998e-01 -2.373528e+01
      vertex   2.774412e+01 -2.000000e+00 -2.373528e+01
    endloop
  endfacet
  facet normal 0.000000e+00 -1.000000e+00 0.000000e+00
    outer loop
      vertex   2.774412e+01 -2.000000e+00 -1.823528e+01
      vertex   2.774412e+01 -2.000000e+00 -2.373528e+01
      vertex   3.234412e+01 -2.000000e+00 -1.823528e+01
    endloop
  endfacet
  facet normal 0.000000e+00 -1.000000e+00 -0.000000e+00
    outer loop
      vertex   3.234412e+01 -2.000000e+00 -1.823528e+01
      vertex   2.774412e+01 -2.000000e+00 -2.373528e+01
      vertex   3.234412e+01 -2.000000e+00 -2.373528e+01
    endloop
  endfacet
  facet normal 7.071068e-01 -7.071068e-01 -4.282070e-17
    outer loop
      vertex   3.334412e+01 -9.999998e-01 -2.373528e+01
      vertex   3.334412e+01 -9.999998e-01 -1.823528e+01
      vertex   3.234412e+01 -2.000000e+00 -2.373528e+01
    endloop
  endfacet
  facet normal 7.071068e-01 -7.071068e-01 0.000000e+00
    outer loop
      vertex   3.234412e+01 -2.000000e+00 -2.373528e+01
      vertex   3.334412e+01 -9.999998e-01 -1.823528e+01
      vertex   3.234412e+01 -2.000000e+00 -1.823528e+01
    endloop
  endfacet
  facet normal 7.071068e-01 7.071068e-01 0.000000e+00
    outer loop
      vertex   3.334412e+01 1.900000e+01 -1.823528e+01
      vertex   3.334412e+01 1.900000e+01 -2.373528e+01
      vertex   3.234412e+01 2.000000e+01 -1.823528e+01
    endloop
  endfacet
  facet normal 7.071068e-01 7.071068e-01 0.000000e+00
    outer loop
      vertex   3.234412e+01 2.000000e+01 -1.823528e+01
      vertex   3.334412e+01 1.900000e+01 -2.373528e+01
      vertex   3.234412e+01 2.000000e+01 -2.373528e+01
    endloop
  endfacet
  facet normal 1.000000e+00 0.000000e+00 -0.000000e+00
    outer loop
      vertex   3.334412e+01 1.900000e+01 -2.373528e+01
      vertex   3.334412e+01 1.900000e+01 -1.823528e+01
      vertex   3.334412e+01 1.700000e+01 -2.373528e+01
    endloop
  endfacet
  facet normal 1.000000e+00 0.000000e+00 0.000000e+00
    outer loop
      vertex   3.334412e+01 1.700000e+01 -2.373528e+01
      vertex   3.334412e+01 1.900000e+01 -1.823528e+01
      vertex   3.334412e+01 1.700000e+01 -1.823528e+01
    endloop
  endfacet
  facet normal 7.071068e-01 7.071068e-01 2.854714e-17
    outer loop
      vertex   3.334412e+01 1.000000e+00 -1.823528e+01
      vertex   3.334412e+01 1.000000e+00 -2.373528e+01
      vertex   3.234412e+01 2.000000e+00 -1.823528e+01
    endloop
  endfacet
  facet normal 7.071068e-01 7.071068e-01 0.000000e+00
    outer loop
      vertex   3.234412e+01 2.000000e+00 -1.823528e+01
      vertex   3.334412e+01 1.000000e+00 -2.373528e+01
      vertex   3.234412e+01 2.000000e+00 -2.373528e+01
    endloop
  endfacet
  facet normal 1.000000e+00 -0.000000e+00 0.000000e+00
    outer loop
      vertex   3.334412e+01 -9.999998e-01 -1.823528e+01
      vertex   3.334412e+01 -9.999998e-01 -2.373528e+01
      vertex   3.334412e+01 1.000000e+00 -1.823528e+01
    endloop
  endfacet
  facet normal 1.000000e+00 0.000000e+00 0.000000e+00
    outer loop
      vertex   3.334412e+01 1.000000e+00 -1.823528e+01
      vertex   3.334412e+01 -9.999998e-01 -2.373528e+01
      vertex   3.334412e+01 1.000000e+00 -2.373528e+01
    endloop
  endfacet
  facet normal 7.071068e-01 -7.071068e-01 0.000000e+00
    outer loop
      vertex   3.334412e+01 1.700000e+01 -2.373528e+01
      vertex   3.334412e+01 1.700000e+01 -1.823528e+01
      vertex   3.234412e+01 1.600000e+01 -2.373528e+01
    endloop
  endfacet
  facet normal 7.071068e-01 -7.071068e-01 0.000000e+00
    outer loop
      vertex   3.234412e+01 1.600000e+01 -2.373528e+01
      vertex   3.334412e+01 1.700000e+01 -1.823528e+01
      vertex   3.234412e+01 1.600000e+01 -1.823528e+01
    endloop
  endfacet
  facet normal 0.000000e+00 1.000000e+00 0.000000e+00
    outer loop
      vertex   3.234412e+01 2.000000e+00 -1.823528e+01
      vertex   3.234412e+01 2.000000e+00 -2.373528e+01
      vertex   3.134412e+01 2.000000e+00 -1.823528e+01
    endloop
  endfacet
  facet normal 0.000000e+00 1.000000e+00 0.000000e+00
    outer loop
      vertex   3.134412e+01 2.000000e+00 -1.823528e+01
      vertex   3.234412e+01 2.000000e+00 -2.373528e+01
      vertex   3.134412e+01 2.000000e+00 -2.373528e+01
    endloop
  endfacet
  facet normal -1.000000e+00 0.000000e+00 0.000000e+00
    outer loop
      vertex   3.134412e+01 -1.499998e-01 -2.373528e+01
      vertex   3.134412e+01 -1.499998e-01 -1.823528e+01
      vertex   3.134412e+01 2.000000e+00 -2.373528e+01
    endloop
  endfacet
  facet normal -1.000000e+00 0.000000e+00 0.000000e+00
    outer loop
      vertex   3.134412e+01 2.000000e+00 -2.373528e+01
      vertex   3.134412e+01 -1.499998e-01 -1.823528e+01
      vertex   3.134412e+01 2.000000e+00 -1.823528e+01
    endloop
  endfacet
  facet normal 0.000000e+00 -1.000000e+00 0.000000e+00
    outer loop
      vertex   3.234412e+01 1.600000e+01 -2.373528e+01
      vertex   3.234412e+01 1.600000e+01 -1.823528e+01
      vertex   3.134412e+01 1.600000e+01 -2.373528e+01
    endloop
  endfacet
  facet normal 0.000000e+00 -1.000000e+00 0.000000e+00
    outer loop
      vertex   3.134412e+01 1.600000e+01 -2.373528e+01
      vertex   3.234412e+01 1.600000e+01 -1.823528e+01
      vertex   3.134412e+01 1.600000e+01 -1.823528e+01
    endloop
  endfacet
  facet normal -1.000000e+00 -0.000000e+00 -0.000000e+00
    outer loop
      vertex   3.134412e+01 1.815000e+01 -1.823528e+01
      vertex   3.134412e+01 1.815000e+01 -2.373528e+01
      vertex   3.134412e+01 1.600000e+01 -1.823528e+01
    endloop
  endfacet
  facet normal -1.000000e+00 0.000000e+00 0.000000e+00
    outer loop
      vertex   3.134412e+01 1.600000e+01 -1.823528e+01
      vertex   3.134412e+01 1.815000e+01 -2.373528e+01
      vertex   3.134412e+01 1.600000e+01 -2.373528e+01
    endloop
  endfacet
  facet normal 0.000000e+00 1.000000e+00 0.000000e+00
    outer loop
      vertex   2.874412e+01 -1.499998e-01 -2.373528e+01
      vertex   2.874412e+01 -1.499998e-01 -1.823528e+01
      vertex   3.134412e+01 -1.499998e-01 -2.373528e+01
    endloop
  endfacet
  facet normal 0.000000e+00 1.000000e+00 -0.000000e+00
    outer loop
      vertex   3.134412e+01 -1.499998e-01 -2.373528e+01
      vertex   2.874412e+01 -1.499998e-01 -1.823528e+01
      vertex   3.134412e+01 -1.499998e-01 -1.823528e+01
    endloop
  endfacet
  facet normal 1.000000e+00 0.000000e+00 0.000000e+00
    outer loop
      vertex   2.874412e+01 -1.499998e-01 -1.823528e+01
      vertex   2.874412e+01 -1.499998e-01 -2.373528e+01
      vertex   2.874412e+01 1.815000e+01 -1.823528e+01
    endloop
  endfacet
  facet normal 1.000000e+00 0.000000e+00 0.000000e+00
    outer loop
      vertex   2.874412e+01 1.815000e+01 -1.823528e+01
      vertex   2.874412e+01 -1.499998e-01 -2.373528e+01
      vertex   2.874412e+01 1.815000e+01 -2.373528e+01
    endloop
  endfacet
  facet normal 0.000000e+00 -1.000000e+00 0.000000e+00
    outer loop
      vertex   2.874412e+01 1.815000e+01 -1.823528e+01
      vertex   2.874412e+01 1.815000e+01 -2.373528e+01
      vertex   3.134412e+01 1.815000e+01 -1.823528e+01
    endloop
  endfacet
  facet normal 0.000000e+00 -1.000000e+00 -0.000000e+00
    outer loop
      vertex   3.134412e+01 1.815000e+01 -1.823528e+01
      vertex   2.874412e+01 1.815000e+01 -2.373528e+01
      vertex   3.134412e+01 1.815000e+01 -2.373528e+01
    endloop
  endfacet
  facet normal 0.000000e+00 -0.000000e+00 -1.000000e+00
    outer loop
      vertex   2.774412e+01 2.000000e+01 -2.373528e+01
      vertex   2.874412e+01 1.815000e+01 -2.373528e+01
      vertex   2.674412e+01 1.900000e+01 -2.373528e+01
    endloop
  endfacet
  facet normal 0.000000e+00 0.000000e+00 -1.000000e+00
    outer loop
      vertex   2.674412e+01 1.900000e+01 -2.373528e+01
      vertex   2.874412e+01 1.815000e+01 -2.373528e+01
      vertex   2.874412e+01 -1.499998e-01 -2.373528e+01
    endloop
  endfacet
  facet normal 0.000000e+00 0.000000e+00 -1.000000e+00
    outer loop
      vertex   2.674412e+01 1.900000e+01 -2.373528e+01
      vertex   2.874412e+01 -1.499998e-01 -2.373528e+01
      vertex   2.674412e+01 -9.999998e-01 -2.373528e+01
    endloop
  endfacet
  facet normal 0.000000e+00 0.000000e+00 -1.000000e+00
    outer loop
      vertex   2.674412e+01 -9.999998e-01 -2.373528e+01
      vertex   2.874412e+01 -1.499998e-01 -2.373528e+01
      vertex   2.774412e+01 -2.000000e+00 -2.373528e+01
    endloop
  endfacet
  facet normal 0.000000e+00 0.000000e+00 -1.000000e+00
    outer loop
      vertex   2.774412e+01 -2.000000e+00 -2.373528e+01
      vertex   2.874412e+01 -1.499998e-01 -2.373528e+01
      vertex   3.234412e+01 -2.000000e+00 -2.373528e+01
    endloop
  endfacet
  facet normal 0.000000e+00 0.000000e+00 -1.000000e+00
    outer loop
      vertex   3.234412e+01 -2.000000e+00 -2.373528e+01
      vertex   2.874412e+01 -1.499998e-01 -2.373528e+01
      vertex   3.134412e+01 -1.499998e-01 -2.373528e+01
    endloop
  endfacet
  facet normal 0.000000e+00 0.000000e+00 -1.000000e+00
    outer loop
      vertex   3.234412e+01 -2.000000e+00 -2.373528e+01
      vertex   3.134412e+01 -1.499998e-01 -2.373528e+01
      vertex   3.234412e+01 2.000000e+00 -2.373528e+01
    endloop
  endfacet
  facet normal -0.000000e+00 0.000000e+00 -1.000000e+00
    outer loop
      vertex   3.234412e+01 2.000000e+00 -2.373528e+01
      vertex   3.134412e+01 -1.499998e-01 -2.373528e+01
      vertex   3.134412e+01 2.000000e+00 -2.373528e+01
    endloop
  endfacet
  facet normal 0.000000e+00 0.000000e+00 -1.000000e+00
    outer loop
      vertex   2.774412e+01 2.000000e+01 -2.373528e+01
      vertex   3.234412e+01 2.000000e+01 -2.373528e+01
      vertex   2.874412e+01 1.815000e+01 -2.373528e+01
    endloop
  endfacet
  facet normal 0.000000e+00 0.000000e+00 -1.000000e+00
    outer loop
      vertex   2.874412e+01 1.815000e+01 -2.373528e+01
      vertex   3.234412e+01 2.000000e+01 -2.373528e+01
      vertex   3.134412e+01 1.815000e+01 -2.373528e+01
    endloop
  endfacet
  facet normal 0.000000e+00 0.000000e+00 -1.000000e+00
    outer loop
      vertex   3.134412e+01 1.815000e+01 -2.373528e+01
      vertex   3.234412e+01 2.000000e+01 -2.373528e+01
      vertex   3.234412e+01 1.600000e+01 -2.373528e+01
    endloop
  endfacet
  facet normal 0.000000e+00 0.000000e+00 -1.000000e+00
    outer loop
      vertex   3.134412e+01 1.815000e+01 -2.373528e+01
      vertex   3.234412e+01 1.600000e+01 -2.373528e+01
      vertex   3.134412e+01 1.600000e+01 -2.373528e+01
    endloop
  endfacet
  facet normal -0.000000e+00 -0.000000e+00 -1.000000e+00
    outer loop
      vertex   3.334412e+01 1.900000e+01 -2.373528e+01
      vertex   3.334412e+01 1.700000e+01 -2.373528e+01
      vertex   3.234412e+01 2.000000e+01 -2.373528e+01
    endloop
  endfacet
  facet normal 0.000000e+00 0.000000e+00 -1.000000e+00
    outer loop
      vertex   3.234412e+01 2.000000e+01 -2.373528e+01
      vertex   3.334412e+01 1.700000e+01 -2.373528e+01
      vertex   3.234412e+01 1.600000e+01 -2.373528e+01
    endloop
  endfacet
  facet normal -0.000000e+00 -0.000000e+00 -1.000000e+00
    outer loop
      vertex   3.334412e+01 1.000000e+00 -2.373528e+01
      vertex   3.334412e+01 -9.999998e-01 -2.373528e+01
      vertex   3.234412e+01 2.000000e+00 -2.373528e+01
    endloop
  endfacet
  facet normal 0.000000e+00 0.000000e+00 -1.000000e+00
    outer loop
      vertex   3.234412e+01 2.000000e+00 -2.373528e+01
      vertex   3.334412e+01 -9.999998e-01 -2.373528e+01
      vertex   3.234412e+01 -2.000000e+00 -2.373528e+01
    endloop
  endfacet
  facet normal -1.000000e+00 -0.000000e+00 -0.000000e+00
    outer loop
      vertex   2.674412e+01 1.900000e+01 -1.823528e+01
      vertex   2.674412e+01 1.900000e+01 -2.373528e+01
      vertex   2.674412e+01 -9.999998e-01 -1.823528e+01
    endloop
  endfacet
  facet normal -1.000000e+00 0.000000e+00 0.000000e+00
    outer loop
      vertex   2.674412e+01 -9.999998e-01 -1.823528e+01
      vertex   2.674412e+01 1.900000e+01 -2.373528e+01
      vertex   2.674412e+01 -9.999998e-01 -2.373528e+01
    endloop
  endfacet
endsolid
