solid ASCII
  facet normal 0.000000e+00 9.974521e-01 -7.133918e-02
    outer loop
      vertex   2.874412e+01 1.800000e+01 -4.582446e+01
      vertex   3.124412e+01 1.800000e+01 -4.582446e+01
      vertex   2.874412e+01 1.799186e+01 -4.593832e+01
    endloop
  endfacet
  facet normal 0.000000e+00 9.974521e-01 -7.133918e-02
    outer loop
      vertex   2.874412e+01 1.799186e+01 -4.593832e+01
      vertex   3.124412e+01 1.800000e+01 -4.582446e+01
      vertex   3.124412e+01 1.799186e+01 -4.593832e+01
    endloop
  endfacet
  facet normal 0.000000e+00 9.771469e-01 -2.125653e-01
    outer loop
      vertex   2.874412e+01 1.799186e+01 -4.593832e+01
      vertex   3.124412e+01 1.799186e+01 -4.593832e+01
      vertex   2.874412e+01 1.796759e+01 -4.604985e+01
    endloop
  endfacet
  facet normal 0.000000e+00 9.771469e-01 -2.125653e-01
    outer loop
      vertex   2.874412e+01 1.796759e+01 -4.604985e+01
      vertex   3.124412e+01 1.799186e+01 -4.593832e+01
      vertex   3.124412e+01 1.796759e+01 -4.604985e+01
    endloop
  endfacet
  facet normal 0.000000e+00 9.369497e-01 -3.494642e-01
    outer loop
      vertex   2.874412e+01 1.796759e+01 -4.604985e+01
      vertex   3.124412e+01 1.796759e+01 -4.604985e+01
      vertex   2.874412e+01 1.792771e+01 -4.615680e+01
    endloop
  endfacet
  facet normal 0.000000e+00 9.369497e-01 -3.494642e-01
    outer loop
      vertex   2.874412e+01 1.792771e+01 -4.615680e+01
      vertex   3.124412e+01 1.796759e+01 -4.604985e+01
      vertex   3.124412e+01 1.792771e+01 -4.615680e+01
    endloop
  endfacet
  facet normal 0.000000e+00 8.776790e-01 -4.792490e-01
    outer loop
      vertex   2.874412e+01 1.792771e+01 -4.615680e+01
      vertex   3.124412e+01 1.792771e+01 -4.615680e+01
      vertex   2.874412e+01 1.787300e+01 -4.625698e+01
    endloop
  endfacet
  facet normal 0.000000e+00 8.776790e-01 -4.792490e-01
    outer loop
      vertex   2.874412e+01 1.787300e+01 -4.625698e+01
      vertex   3.124412e+01 1.792771e+01 -4.615680e+01
      vertex   3.124412e+01 1.787300e+01 -4.625698e+01
    endloop
  endfacet
  facet normal 0.000000e+00 8.005412e-01 -5.992777e-01
    outer loop
      vertex   2.874412e+01 1.787300e+01 -4.625698e+01
      vertex   3.124412e+01 1.787300e+01 -4.625698e+01
      vertex   2.874412e+01 1.780460e+01 -4.634835e+01
    endloop
  endfacet
  facet normal 0.000000e+00 8.005412e-01 -5.992777e-01
    outer loop
      vertex   2.874412e+01 1.780460e+01 -4.634835e+01
      vertex   3.124412e+01 1.787300e+01 -4.625698e+01
      vertex   3.124412e+01 1.780460e+01 -4.634835e+01
    endloop
  endfacet
  facet normal 0.000000e+00 7.071068e-01 -7.071068e-01
    outer loop
      vertex   2.874412e+01 1.780460e+01 -4.634835e+01
      vertex   3.124412e+01 1.780460e+01 -4.634835e+01
      vertex   2.874412e+01 1.772389e+01 -4.642906e+01
    endloop
  endfacet
  facet normal 0.000000e+00 7.071068e-01 -7.071068e-01
    outer loop
      vertex   2.874412e+01 1.772389e+01 -4.642906e+01
      vertex   3.124412e+01 1.780460e+01 -4.634835e+01
      vertex   3.124412e+01 1.772389e+01 -4.642906e+01
    endloop
  endfacet
  facet normal 0.000000e+00 5.992777e-01 -8.005412e-01
    outer loop
      vertex   2.874412e+01 1.772389e+01 -4.642906e+01
      vertex   3.124412e+01 1.772389e+01 -4.642906e+01
      vertex   2.874412e+01 1.763251e+01 -4.649747e+01
    endloop
  endfacet
  facet normal 0.000000e+00 5.992777e-01 -8.005412e-01
    outer loop
      vertex   2.874412e+01 1.763251e+01 -4.649747e+01
      vertex   3.124412e+01 1.772389e+01 -4.642906e+01
      vertex   3.124412e+01 1.763251e+01 -4.649747e+01
    endloop
  endfacet
  facet normal 0.000000e+00 4.792490e-01 -8.776790e-01
    outer loop
      vertex   2.874412e+01 1.763251e+01 -4.649747e+01
      vertex   3.124412e+01 1.763251e+01 -4.649747e+01
      vertex   2.874412e+01 1.753233e+01 -4.655217e+01
    endloop
  endfacet
  facet normal 0.000000e+00 4.792490e-01 -8.776790e-01
    outer loop
      vertex   2.874412e+01 1.753233e+01 -4.655217e+01
      vertex   3.124412e+01 1.763251e+01 -4.649747e+01
      vertex   3.124412e+01 1.753233e+01 -4.655217e+01
    endloop
  endfacet
  facet normal 0.000000e+00 3.494642e-01 -9.369497e-01
    outer loop
      vertex   2.874412e+01 1.753233e+01 -4.655217e+01
      vertex   3.124412e+01 1.753233e+01 -4.655217e+01
      vertex   2.874412e+01 1.742539e+01 -4.659206e+01
    endloop
  endfacet
  facet normal 0.000000e+00 3.494642e-01 -9.369497e-01
    outer loop
      vertex   2.874412e+01 1.742539e+01 -4.659206e+01
      vertex   3.124412e+01 1.753233e+01 -4.655217e+01
      vertex   3.124412e+01 1.742539e+01 -4.659206e+01
    endloop
  endfacet
  facet normal 0.000000e+00 2.125653e-01 -9.771469e-01
    outer loop
      vertex   2.874412e+01 1.742539e+01 -4.659206e+01
      vertex   3.124412e+01 1.742539e+01 -4.659206e+01
      vertex   2.874412e+01 1.731385e+01 -4.661632e+01
    endloop
  endfacet
  facet normal 0.000000e+00 2.125653e-01 -9.771469e-01
    outer loop
      vertex   2.874412e+01 1.731385e+01 -4.661632e+01
      vertex   3.124412e+01 1.742539e+01 -4.659206e+01
      vertex   3.124412e+01 1.731385e+01 -4.661632e+01
    endloop
  endfacet
  facet normal 0.000000e+00 7.133918e-02 -9.974521e-01
    outer loop
      vertex   2.874412e+01 1.731385e+01 -4.661632e+01
      vertex   3.124412e+01 1.731385e+01 -4.661632e+01
      vertex   2.874412e+01 1.720000e+01 -4.662446e+01
    endloop
  endfacet
  facet normal 0.000000e+00 7.133918e-02 -9.974521e-01
    outer loop
      vertex   2.874412e+01 1.720000e+01 -4.662446e+01
      vertex   3.124412e+01 1.731385e+01 -4.661632e+01
      vertex   3.124412e+01 1.720000e+01 -4.662446e+01
    endloop
  endfacet
  facet normal -0.000000e+00 -0.000000e+00 -1.000000e+00
    outer loop
      vertex   3.124412e+01 1.720000e+01 -4.662446e+01
      vertex   3.124412e+01 8.000002e-01 -4.662446e+01
      vertex   2.874412e+01 1.720000e+01 -4.662446e+01
    endloop
  endfacet
  facet normal 0.000000e+00 0.000000e+00 -1.000000e+00
    outer loop
      vertex   2.874412e+01 1.720000e+01 -4.662446e+01
      vertex   3.124412e+01 8.000002e-01 -4.662446e+01
      vertex   2.874412e+01 8.000002e-01 -4.662446e+01
    endloop
  endfacet
  facet normal 1.000000e+00 -3.420853e-16 4.782977e-15
    outer loop
      vertex   3.124412e+01 1.731385e+01 -4.661632e+01
      vertex   3.124412e+01 1.800000e+01 -4.582446e+01
      vertex   3.124412e+01 1.720000e+01 -4.662446e+01
    endloop
  endfacet
  facet normal 1.000000e+00 4.440892e-15 0.000000e+00
    outer loop
      vertex   3.124412e+01 1.720000e+01 -4.662446e+01
      vertex   3.124412e+01 1.800000e+01 -4.582446e+01
      vertex   3.124412e+01 1.800000e+01 -8.424464e+00
    endloop
  endfacet
  facet normal 1.000000e+00 9.109522e-17 9.109522e-17
    outer loop
      vertex   3.124412e+01 1.720000e+01 -4.662446e+01
      vertex   3.124412e+01 1.800000e+01 -8.424464e+00
      vertex   3.124412e+01 1.720000e+01 -7.624464e+00
    endloop
  endfacet
  facet normal 1.000000e+00 -3.360842e-14 -3.360842e-14
    outer loop
      vertex   3.124412e+01 1.720000e+01 -7.624464e+00
      vertex   3.124412e+01 1.800000e+01 -8.424464e+00
      vertex   3.124412e+01 1.731385e+01 -7.632607e+00
    endloop
  endfacet
  facet normal 1.000000e+00 -1.202695e-15 -5.528700e-15
    outer loop
      vertex   3.124412e+01 1.731385e+01 -7.632607e+00
      vertex   3.124412e+01 1.800000e+01 -8.424464e+00
      vertex   3.124412e+01 1.742539e+01 -7.656870e+00
    endloop
  endfacet
  facet normal 1.000000e+00 -2.395002e-15 -6.421250e-15
    outer loop
      vertex   3.124412e+01 1.742539e+01 -7.656870e+00
      vertex   3.124412e+01 1.800000e+01 -8.424464e+00
      vertex   3.124412e+01 1.753233e+01 -7.696759e+00
    endloop
  endfacet
  facet normal 1.000000e+00 -4.107063e-15 -7.521525e-15
    outer loop
      vertex   3.124412e+01 1.753233e+01 -7.696759e+00
      vertex   3.124412e+01 1.800000e+01 -8.424464e+00
      vertex   3.124412e+01 1.763251e+01 -7.751461e+00
    endloop
  endfacet
  facet normal 1.000000e+00 -6.683823e-15 -8.928542e-15
    outer loop
      vertex   3.124412e+01 1.763251e+01 -7.751461e+00
      vertex   3.124412e+01 1.800000e+01 -8.424464e+00
      vertex   3.124412e+01 1.772389e+01 -7.819865e+00
    endloop
  endfacet
  facet normal 1.000000e+00 -1.081534e-14 -1.081534e-14
    outer loop
      vertex   3.124412e+01 1.772389e+01 -7.819865e+00
      vertex   3.124412e+01 1.800000e+01 -8.424464e+00
      vertex   3.124412e+01 1.780460e+01 -7.900576e+00
    endloop
  endfacet
  facet normal 1.000000e+00 -1.805445e-14 -1.351539e-14
    outer loop
      vertex   3.124412e+01 1.780460e+01 -7.900576e+00
      vertex   3.124412e+01 1.800000e+01 -8.424464e+00
      vertex   3.124412e+01 1.787300e+01 -7.991952e+00
    endloop
  endfacet
  facet normal 1.000000e+00 -3.254217e-14 -1.776937e-14
    outer loop
      vertex   3.124412e+01 1.787300e+01 -7.991952e+00
      vertex   3.124412e+01 1.800000e+01 -8.424464e+00
      vertex   3.124412e+01 1.792771e+01 -8.092132e+00
    endloop
  endfacet
  facet normal 1.000000e+00 -6.877237e-14 -2.565077e-14
    outer loop
      vertex   3.124412e+01 1.792771e+01 -8.092132e+00
      vertex   3.124412e+01 1.800000e+01 -8.424464e+00
      vertex   3.124412e+01 1.796759e+01 -8.199078e+00
    endloop
  endfacet
  facet normal 1.000000e+00 -2.137085e-13 -4.648943e-14
    outer loop
      vertex   3.124412e+01 1.796759e+01 -8.199078e+00
      vertex   3.124412e+01 1.800000e+01 -8.424464e+00
      vertex   3.124412e+01 1.799186e+01 -8.310612e+00
    endloop
  endfacet
  facet normal 1.000000e+00 -1.202695e-15 5.528700e-15
    outer loop
      vertex   3.124412e+01 1.731385e+01 -4.661632e+01
      vertex   3.124412e+01 1.742539e+01 -4.659206e+01
      vertex   3.124412e+01 1.800000e+01 -4.582446e+01
    endloop
  endfacet
  facet normal 1.000000e+00 -2.395002e-15 6.421250e-15
    outer loop
      vertex   3.124412e+01 1.800000e+01 -4.582446e+01
      vertex   3.124412e+01 1.742539e+01 -4.659206e+01
      vertex   3.124412e+01 1.753233e+01 -4.655217e+01
    endloop
  endfacet
  facet normal 1.000000e+00 -4.107063e-15 7.521525e-15
    outer loop
      vertex   3.124412e+01 1.800000e+01 -4.582446e+01
      vertex   3.124412e+01 1.753233e+01 -4.655217e+01
      vertex   3.124412e+01 1.763251e+01 -4.649747e+01
    endloop
  endfacet
  facet normal 1.000000e+00 -6.683823e-15 8.928542e-15
    outer loop
      vertex   3.124412e+01 1.763251e+01 -4.649747e+01
      vertex   3.124412e+01 1.772389e+01 -4.642906e+01
      vertex   3.124412e+01 1.800000e+01 -4.582446e+01
    endloop
  endfacet
  facet normal 1.000000e+00 -1.081534e-14 1.081534e-14
    outer loop
      vertex   3.124412e+01 1.800000e+01 -4.582446e+01
      vertex   3.124412e+01 1.772389e+01 -4.642906e+01
      vertex   3.124412e+01 1.780460e+01 -4.634835e+01
    endloop
  endfacet
  facet normal 1.000000e+00 -1.805445e-14 1.351539e-14
    outer loop
      vertex   3.124412e+01 1.800000e+01 -4.582446e+01
      vertex   3.124412e+01 1.780460e+01 -4.634835e+01
      vertex   3.124412e+01 1.787300e+01 -4.625698e+01
    endloop
  endfacet
  facet normal 1.000000e+00 -3.254217e-14 1.776937e-14
    outer loop
      vertex   3.124412e+01 1.787300e+01 -4.625698e+01
      vertex   3.124412e+01 1.792771e+01 -4.615680e+01
      vertex   3.124412e+01 1.800000e+01 -4.582446e+01
    endloop
  endfacet
  facet normal 1.000000e+00 -6.877237e-14 2.565077e-14
    outer loop
      vertex   3.124412e+01 1.800000e+01 -4.582446e+01
      vertex   3.124412e+01 1.792771e+01 -4.615680e+01
      vertex   3.124412e+01 1.796759e+01 -4.604985e+01
    endloop
  endfacet
  facet normal 1.000000e+00 -2.137085e-13 4.648943e-14
    outer loop
      vertex   3.124412e+01 1.800000e+01 -4.582446e+01
      vertex   3.124412e+01 1.796759e+01 -4.604985e+01
      vertex   3.124412e+01 1.799186e+01 -4.593832e+01
    endloop
  endfacet
  facet normal 1.000000e+00 0.000000e+00 9.109522e-17
    outer loop
      vertex   3.124412e+01 1.720000e+01 -4.662446e+01
      vertex   3.124412e+01 1.720000e+01 -7.624464e+00
      vertex   3.124412e+01 8.000002e-01 -4.662446e+01
    endloop
  endfacet
  facet normal 1.000000e+00 0.000000e+00 9.109522e-17
    outer loop
      vertex   3.124412e+01 8.000002e-01 -4.662446e+01
      vertex   3.124412e+01 1.720000e+01 -7.624464e+00
      vertex   3.124412e+01 8.000002e-01 -7.624464e+00
    endloop
  endfacet
  facet normal 1.000000e+00 9.109522e-17 9.109522e-17
    outer loop
      vertex   3.124412e+01 8.000002e-01 -4.662446e+01
      vertex   3.124412e+01 8.000002e-01 -7.624464e+00
      vertex   3.124412e+01 2.475138e-07 -4.582446e+01
    endloop
  endfacet
  facet normal 1.000000e+00 4.440892e-15 -0.000000e+00
    outer loop
      vertex   3.124412e+01 2.475138e-07 -4.582446e+01
      vertex   3.124412e+01 8.000002e-01 -7.624464e+00
      vertex   3.124412e+01 2.475138e-07 -8.424464e+00
    endloop
  endfacet
  facet normal 1.000000e+00 3.326634e-14 -2.882545e-14
    outer loop
      vertex   3.124412e+01 2.475138e-07 -8.424464e+00
      vertex   3.124412e+01 8.000002e-01 -7.624464e+00
      vertex   3.124412e+01 6.861484e-01 -7.632607e+00
    endloop
  endfacet
  facet normal 1.000000e+00 0.000000e+00 0.000000e+00
    outer loop
      vertex   3.124412e+01 2.475138e-07 -8.424464e+00
      vertex   3.124412e+01 6.861484e-01 -7.632607e+00
      vertex   3.124412e+01 5.746142e-01 -7.656870e+00
    endloop
  endfacet
  facet normal 1.000000e+00 0.000000e+00 0.000000e+00
    outer loop
      vertex   3.124412e+01 5.746142e-01 -7.656870e+00
      vertex   3.124412e+01 4.676682e-01 -7.696759e+00
      vertex   3.124412e+01 2.475138e-07 -8.424464e+00
    endloop
  endfacet
  facet normal 1.000000e+00 0.000000e+00 0.000000e+00
    outer loop
      vertex   3.124412e+01 2.475138e-07 -8.424464e+00
      vertex   3.124412e+01 4.676682e-01 -7.696759e+00
      vertex   3.124412e+01 3.674876e-01 -7.751461e+00
    endloop
  endfacet
  facet normal 1.000000e+00 0.000000e+00 0.000000e+00
    outer loop
      vertex   3.124412e+01 2.475138e-07 -8.424464e+00
      vertex   3.124412e+01 3.674876e-01 -7.751461e+00
      vertex   3.124412e+01 2.761117e-01 -7.819865e+00
    endloop
  endfacet
  facet normal 1.000000e+00 0.000000e+00 0.000000e+00
    outer loop
      vertex   3.124412e+01 2.761117e-01 -7.819865e+00
      vertex   3.124412e+01 1.954006e-01 -7.900576e+00
      vertex   3.124412e+01 2.475138e-07 -8.424464e+00
    endloop
  endfacet
  facet normal 1.000000e+00 0.000000e+00 0.000000e+00
    outer loop
      vertex   3.124412e+01 2.475138e-07 -8.424464e+00
      vertex   3.124412e+01 1.954006e-01 -7.900576e+00
      vertex   3.124412e+01 1.269974e-01 -7.991952e+00
    endloop
  endfacet
  facet normal 1.000000e+00 0.000000e+00 0.000000e+00
    outer loop
      vertex   3.124412e+01 2.475138e-07 -8.424464e+00
      vertex   3.124412e+01 1.269974e-01 -7.991952e+00
      vertex   3.124412e+01 7.229465e-02 -8.092132e+00
    endloop
  endfacet
  facet normal 1.000000e+00 0.000000e+00 0.000000e+00
    outer loop
      vertex   3.124412e+01 7.229465e-02 -8.092132e+00
      vertex   3.124412e+01 3.240587e-02 -8.199078e+00
      vertex   3.124412e+01 2.475138e-07 -8.424464e+00
    endloop
  endfacet
  facet normal 1.000000e+00 0.000000e+00 0.000000e+00
    outer loop
      vertex   3.124412e+01 2.475138e-07 -8.424464e+00
      vertex   3.124412e+01 3.240587e-02 -8.199078e+00
      vertex   3.124412e+01 8.143094e-03 -8.310612e+00
    endloop
  endfacet
  facet normal 1.000000e+00 -0.000000e+00 -0.000000e+00
    outer loop
      vertex   3.124412e+01 8.143094e-03 -4.593832e+01
      vertex   3.124412e+01 3.240587e-02 -4.604985e+01
      vertex   3.124412e+01 2.475138e-07 -4.582446e+01
    endloop
  endfacet
  facet normal 1.000000e+00 0.000000e+00 0.000000e+00
    outer loop
      vertex   3.124412e+01 2.475138e-07 -4.582446e+01
      vertex   3.124412e+01 3.240587e-02 -4.604985e+01
      vertex   3.124412e+01 7.229465e-02 -4.615680e+01
    endloop
  endfacet
  facet normal 1.000000e+00 0.000000e+00 0.000000e+00
    outer loop
      vertex   3.124412e+01 2.475138e-07 -4.582446e+01
      vertex   3.124412e+01 7.229465e-02 -4.615680e+01
      vertex   3.124412e+01 1.269974e-01 -4.625698e+01
    endloop
  endfacet
  facet normal 1.000000e+00 -0.000000e+00 -0.000000e+00
    outer loop
      vertex   3.124412e+01 1.269974e-01 -4.625698e+01
      vertex   3.124412e+01 1.954006e-01 -4.634835e+01
      vertex   3.124412e+01 2.475138e-07 -4.582446e+01
    endloop
  endfacet
  facet normal 1.000000e+00 0.000000e+00 0.000000e+00
    outer loop
      vertex   3.124412e+01 2.475138e-07 -4.582446e+01
      vertex   3.124412e+01 1.954006e-01 -4.634835e+01
      vertex   3.124412e+01 2.761117e-01 -4.642906e+01
    endloop
  endfacet
  facet normal 1.000000e+00 0.000000e+00 0.000000e+00
    outer loop
      vertex   3.124412e+01 2.475138e-07 -4.582446e+01
      vertex   3.124412e+01 2.761117e-01 -4.642906e+01
      vertex   3.124412e+01 3.674876e-01 -4.649747e+01
    endloop
  endfacet
  facet normal 1.000000e+00 -0.000000e+00 -0.000000e+00
    outer loop
      vertex   3.124412e+01 3.674876e-01 -4.649747e+01
      vertex   3.124412e+01 4.676682e-01 -4.655217e+01
      vertex   3.124412e+01 2.475138e-07 -4.582446e+01
    endloop
  endfacet
  facet normal 1.000000e+00 0.000000e+00 0.000000e+00
    outer loop
      vertex   3.124412e+01 2.475138e-07 -4.582446e+01
      vertex   3.124412e+01 4.676682e-01 -4.655217e+01
      vertex   3.124412e+01 5.746142e-01 -4.659206e+01
    endloop
  endfacet
  facet normal 1.000000e+00 0.000000e+00 0.000000e+00
    outer loop
      vertex   3.124412e+01 2.475138e-07 -4.582446e+01
      vertex   3.124412e+01 5.746142e-01 -4.659206e+01
      vertex   3.124412e+01 6.861484e-01 -4.661632e+01
    endloop
  endfacet
  facet normal 1.000000e+00 -0.000000e+00 -0.000000e+00
    outer loop
      vertex   3.124412e+01 6.861484e-01 -4.661632e+01
      vertex   3.124412e+01 8.000002e-01 -4.662446e+01
      vertex   3.124412e+01 2.475138e-07 -4.582446e+01
    endloop
  endfacet
  facet normal 0.000000e+00 -7.133918e-02 -9.974521e-01
    outer loop
      vertex   2.874412e+01 8.000002e-01 -4.662446e+01
      vertex   3.124412e+01 8.000002e-01 -4.662446e+01
      vertex   2.874412e+01 6.861484e-01 -4.661632e+01
    endloop
  endfacet
  facet normal 3.168096e-18 -7.133918e-02 -9.974521e-01
    outer loop
      vertex   2.874412e+01 6.861484e-01 -4.661632e+01
      vertex   3.124412e+01 8.000002e-01 -4.662446e+01
      vertex   3.124412e+01 6.861484e-01 -4.661632e+01
    endloop
  endfacet
  facet normal 9.439795e-18 -2.125653e-01 -9.771469e-01
    outer loop
      vertex   2.874412e+01 6.861484e-01 -4.661632e+01
      vertex   3.124412e+01 6.861484e-01 -4.661632e+01
      vertex   2.874412e+01 5.746142e-01 -4.659206e+01
    endloop
  endfacet
  facet normal 0.000000e+00 -2.125653e-01 -9.771469e-01
    outer loop
      vertex   2.874412e+01 5.746142e-01 -4.659206e+01
      vertex   3.124412e+01 6.861484e-01 -4.661632e+01
      vertex   3.124412e+01 5.746142e-01 -4.659206e+01
    endloop
  endfacet
  facet normal 0.000000e+00 -3.494642e-01 -9.369497e-01
    outer loop
      vertex   2.874412e+01 5.746142e-01 -4.659206e+01
      vertex   3.124412e+01 5.746142e-01 -4.659206e+01
      vertex   2.874412e+01 4.676682e-01 -4.655217e+01
    endloop
  endfacet
  facet normal 0.000000e+00 -3.494642e-01 -9.369497e-01
    outer loop
      vertex   2.874412e+01 4.676682e-01 -4.655217e+01
      vertex   3.124412e+01 5.746142e-01 -4.659206e+01
      vertex   3.124412e+01 4.676682e-01 -4.655217e+01
    endloop
  endfacet
  facet normal 0.000000e+00 -4.792490e-01 -8.776790e-01
    outer loop
      vertex   2.874412e+01 4.676682e-01 -4.655217e+01
      vertex   3.124412e+01 4.676682e-01 -4.655217e+01
      vertex   2.874412e+01 3.674876e-01 -4.649747e+01
    endloop
  endfacet
  facet normal 1.064147e-17 -4.792490e-01 -8.776790e-01
    outer loop
      vertex   2.874412e+01 3.674876e-01 -4.649747e+01
      vertex   3.124412e+01 4.676682e-01 -4.655217e+01
      vertex   3.124412e+01 3.674876e-01 -4.649747e+01
    endloop
  endfacet
  facet normal 1.330664e-17 -5.992777e-01 -8.005412e-01
    outer loop
      vertex   2.874412e+01 3.674876e-01 -4.649747e+01
      vertex   3.124412e+01 3.674876e-01 -4.649747e+01
      vertex   2.874412e+01 2.761117e-01 -4.642906e+01
    endloop
  endfacet
  facet normal 1.330664e-17 -5.992777e-01 -8.005412e-01
    outer loop
      vertex   2.874412e+01 2.761117e-01 -4.642906e+01
      vertex   3.124412e+01 3.674876e-01 -4.649747e+01
      vertex   3.124412e+01 2.761117e-01 -4.642906e+01
    endloop
  endfacet
  facet normal 1.570092e-17 -7.071068e-01 -7.071068e-01
    outer loop
      vertex   2.874412e+01 2.761117e-01 -4.642906e+01
      vertex   3.124412e+01 2.761117e-01 -4.642906e+01
      vertex   2.874412e+01 1.954006e-01 -4.634835e+01
    endloop
  endfacet
  facet normal 4.710277e-17 -7.071068e-01 -7.071068e-01
    outer loop
      vertex   2.874412e+01 1.954006e-01 -4.634835e+01
      vertex   3.124412e+01 2.761117e-01 -4.642906e+01
      vertex   3.124412e+01 1.954006e-01 -4.634835e+01
    endloop
  endfacet
  facet normal 5.332676e-17 -8.005412e-01 -5.992777e-01
    outer loop
      vertex   2.874412e+01 1.954006e-01 -4.634835e+01
      vertex   3.124412e+01 1.954006e-01 -4.634835e+01
      vertex   2.874412e+01 1.269974e-01 -4.625698e+01
    endloop
  endfacet
  facet normal 3.555117e-17 -8.005412e-01 -5.992777e-01
    outer loop
      vertex   2.874412e+01 1.269974e-01 -4.625698e+01
      vertex   3.124412e+01 1.954006e-01 -4.634835e+01
      vertex   3.124412e+01 1.269974e-01 -4.625698e+01
    endloop
  endfacet
  facet normal 3.897678e-17 -8.776790e-01 -4.792490e-01
    outer loop
      vertex   2.874412e+01 1.269974e-01 -4.625698e+01
      vertex   3.124412e+01 1.269974e-01 -4.625698e+01
      vertex   2.874412e+01 7.229465e-02 -4.615680e+01
    endloop
  endfacet
  facet normal 4.872097e-17 -8.776790e-01 -4.792490e-01
    outer loop
      vertex   2.874412e+01 7.229465e-02 -4.615680e+01
      vertex   3.124412e+01 1.269974e-01 -4.625698e+01
      vertex   3.124412e+01 7.229465e-02 -4.615680e+01
    endloop
  endfacet
  facet normal 5.201116e-17 -9.369497e-01 -3.494642e-01
    outer loop
      vertex   2.874412e+01 7.229465e-02 -4.615680e+01
      vertex   3.124412e+01 7.229465e-02 -4.615680e+01
      vertex   2.874412e+01 3.240587e-02 -4.604985e+01
    endloop
  endfacet
  facet normal 5.201116e-17 -9.369497e-01 -3.494642e-01
    outer loop
      vertex   2.874412e+01 3.240587e-02 -4.604985e+01
      vertex   3.124412e+01 7.229465e-02 -4.615680e+01
      vertex   3.124412e+01 3.240587e-02 -4.604985e+01
    endloop
  endfacet
  facet normal 5.424255e-17 -9.771469e-01 -2.125653e-01
    outer loop
      vertex   2.874412e+01 3.240587e-02 -4.604985e+01
      vertex   3.124412e+01 3.240587e-02 -4.604985e+01
      vertex   2.874412e+01 8.143094e-03 -4.593832e+01
    endloop
  endfacet
  facet normal 5.424255e-17 -9.771469e-01 -2.125653e-01
    outer loop
      vertex   2.874412e+01 8.143094e-03 -4.593832e+01
      vertex   3.124412e+01 3.240587e-02 -4.604985e+01
      vertex   3.124412e+01 8.143094e-03 -4.593832e+01
    endloop
  endfacet
  facet normal 5.536972e-17 -9.974521e-01 -7.133918e-02
    outer loop
      vertex   2.874412e+01 8.143094e-03 -4.593832e+01
      vertex   3.124412e+01 8.143094e-03 -4.593832e+01
      vertex   2.874412e+01 2.475138e-07 -4.582446e+01
    endloop
  endfacet
  facet normal 6.229093e-17 -9.974521e-01 -7.133918e-02
    outer loop
      vertex   2.874412e+01 2.475138e-07 -4.582446e+01
      vertex   3.124412e+01 8.143094e-03 -4.593832e+01
      vertex   3.124412e+01 2.475138e-07 -4.582446e+01
    endloop
  endfacet
  facet normal 6.245005e-17 -1.000000e+00 0.000000e+00
    outer loop
      vertex   3.124412e+01 2.475138e-07 -4.582446e+01
      vertex   3.124412e+01 2.475138e-07 -8.424464e+00
      vertex   2.874412e+01 2.475138e-07 -4.582446e+01
    endloop
  endfacet
  facet normal 6.245005e-17 -1.000000e+00 0.000000e+00
    outer loop
      vertex   2.874412e+01 2.475138e-07 -4.582446e+01
      vertex   3.124412e+01 2.475138e-07 -8.424464e+00
      vertex   2.874412e+01 2.475138e-07 -8.424464e+00
    endloop
  endfacet
  facet normal -0.000000e+00 7.133918e-02 9.974521e-01
    outer loop
      vertex   2.874412e+01 1.720000e+01 -7.624464e+00
      vertex   3.124412e+01 1.720000e+01 -7.624464e+00
      vertex   2.874412e+01 1.731385e+01 -7.632607e+00
    endloop
  endfacet
  facet normal -0.000000e+00 7.133918e-02 9.974521e-01
    outer loop
      vertex   2.874412e+01 1.731385e+01 -7.632607e+00
      vertex   3.124412e+01 1.720000e+01 -7.624464e+00
      vertex   3.124412e+01 1.731385e+01 -7.632607e+00
    endloop
  endfacet
  facet normal -0.000000e+00 2.125653e-01 9.771469e-01
    outer loop
      vertex   2.874412e+01 1.731385e+01 -7.632607e+00
      vertex   3.124412e+01 1.731385e+01 -7.632607e+00
      vertex   2.874412e+01 1.742539e+01 -7.656870e+00
    endloop
  endfacet
  facet normal -0.000000e+00 2.125653e-01 9.771469e-01
    outer loop
      vertex   2.874412e+01 1.742539e+01 -7.656870e+00
      vertex   3.124412e+01 1.731385e+01 -7.632607e+00
      vertex   3.124412e+01 1.742539e+01 -7.656870e+00
    endloop
  endfacet
  facet normal -0.000000e+00 3.494642e-01 9.369497e-01
    outer loop
      vertex   2.874412e+01 1.742539e+01 -7.656870e+00
      vertex   3.124412e+01 1.742539e+01 -7.656870e+00
      vertex   2.874412e+01 1.753233e+01 -7.696759e+00
    endloop
  endfacet
  facet normal -0.000000e+00 3.494642e-01 9.369497e-01
    outer loop
      vertex   2.874412e+01 1.753233e+01 -7.696759e+00
      vertex   3.124412e+01 1.742539e+01 -7.656870e+00
      vertex   3.124412e+01 1.753233e+01 -7.696759e+00
    endloop
  endfacet
  facet normal -0.000000e+00 4.792490e-01 8.776790e-01
    outer loop
      vertex   2.874412e+01 1.753233e+01 -7.696759e+00
      vertex   3.124412e+01 1.753233e+01 -7.696759e+00
      vertex   2.874412e+01 1.763251e+01 -7.751461e+00
    endloop
  endfacet
  facet normal -0.000000e+00 4.792490e-01 8.776790e-01
    outer loop
      vertex   2.874412e+01 1.763251e+01 -7.751461e+00
      vertex   3.124412e+01 1.753233e+01 -7.696759e+00
      vertex   3.124412e+01 1.763251e+01 -7.751461e+00
    endloop
  endfacet
  facet normal -0.000000e+00 5.992777e-01 8.005412e-01
    outer loop
      vertex   2.874412e+01 1.763251e+01 -7.751461e+00
      vertex   3.124412e+01 1.763251e+01 -7.751461e+00
      vertex   2.874412e+01 1.772389e+01 -7.819865e+00
    endloop
  endfacet
  facet normal -0.000000e+00 5.992777e-01 8.005412e-01
    outer loop
      vertex   2.874412e+01 1.772389e+01 -7.819865e+00
      vertex   3.124412e+01 1.763251e+01 -7.751461e+00
      vertex   3.124412e+01 1.772389e+01 -7.819865e+00
    endloop
  endfacet
  facet normal -0.000000e+00 7.071068e-01 7.071068e-01
    outer loop
      vertex   2.874412e+01 1.772389e+01 -7.819865e+00
      vertex   3.124412e+01 1.772389e+01 -7.819865e+00
      vertex   2.874412e+01 1.780460e+01 -7.900576e+00
    endloop
  endfacet
  facet normal -0.000000e+00 7.071068e-01 7.071068e-01
    outer loop
      vertex   2.874412e+01 1.780460e+01 -7.900576e+00
      vertex   3.124412e+01 1.772389e+01 -7.819865e+00
      vertex   3.124412e+01 1.780460e+01 -7.900576e+00
    endloop
  endfacet
  facet normal -0.000000e+00 8.005412e-01 5.992777e-01
    outer loop
      vertex   2.874412e+01 1.780460e+01 -7.900576e+00
      vertex   3.124412e+01 1.780460e+01 -7.900576e+00
      vertex   2.874412e+01 1.787300e+01 -7.991952e+00
    endloop
  endfacet
  facet normal -0.000000e+00 8.005412e-01 5.992777e-01
    outer loop
      vertex   2.874412e+01 1.787300e+01 -7.991952e+00
      vertex   3.124412e+01 1.780460e+01 -7.900576e+00
      vertex   3.124412e+01 1.787300e+01 -7.991952e+00
    endloop
  endfacet
  facet normal -0.000000e+00 8.776790e-01 4.792490e-01
    outer loop
      vertex   2.874412e+01 1.787300e+01 -7.991952e+00
      vertex   3.124412e+01 1.787300e+01 -7.991952e+00
      vertex   2.874412e+01 1.792771e+01 -8.092132e+00
    endloop
  endfacet
  facet normal -0.000000e+00 8.776790e-01 4.792490e-01
    outer loop
      vertex   2.874412e+01 1.792771e+01 -8.092132e+00
      vertex   3.124412e+01 1.787300e+01 -7.991952e+00
      vertex   3.124412e+01 1.792771e+01 -8.092132e+00
    endloop
  endfacet
  facet normal -0.000000e+00 9.369497e-01 3.494642e-01
    outer loop
      vertex   2.874412e+01 1.792771e+01 -8.092132e+00
      vertex   3.124412e+01 1.792771e+01 -8.092132e+00
      vertex   2.874412e+01 1.796759e+01 -8.199078e+00
    endloop
  endfacet
  facet normal -0.000000e+00 9.369497e-01 3.494642e-01
    outer loop
      vertex   2.874412e+01 1.796759e+01 -8.199078e+00
      vertex   3.124412e+01 1.792771e+01 -8.092132e+00
      vertex   3.124412e+01 1.796759e+01 -8.199078e+00
    endloop
  endfacet
  facet normal -0.000000e+00 9.771469e-01 2.125653e-01
    outer loop
      vertex   2.874412e+01 1.796759e+01 -8.199078e+00
      vertex   3.124412e+01 1.796759e+01 -8.199078e+00
      vertex   2.874412e+01 1.799186e+01 -8.310612e+00
    endloop
  endfacet
  facet normal -0.000000e+00 9.771469e-01 2.125653e-01
    outer loop
      vertex   2.874412e+01 1.799186e+01 -8.310612e+00
      vertex   3.124412e+01 1.796759e+01 -8.199078e+00
      vertex   3.124412e+01 1.799186e+01 -8.310612e+00
    endloop
  endfacet
  facet normal -0.000000e+00 9.974521e-01 7.133918e-02
    outer loop
      vertex   2.874412e+01 1.799186e+01 -8.310612e+00
      vertex   3.124412e+01 1.799186e+01 -8.310612e+00
      vertex   2.874412e+01 1.800000e+01 -8.424464e+00
    endloop
  endfacet
  facet normal -0.000000e+00 9.974521e-01 7.133918e-02
    outer loop
      vertex   2.874412e+01 1.800000e+01 -8.424464e+00
      vertex   3.124412e+01 1.799186e+01 -8.310612e+00
      vertex   3.124412e+01 1.800000e+01 -8.424464e+00
    endloop
  endfacet
  facet normal 0.000000e+00 1.000000e+00 0.000000e+00
    outer loop
      vertex   2.874412e+01 1.800000e+01 -4.582446e+01
      vertex   2.874412e+01 1.800000e+01 -8.424464e+00
      vertex   3.124412e+01 1.800000e+01 -4.582446e+01
    endloop
  endfacet
  facet normal 0.000000e+00 1.000000e+00 -0.000000e+00
    outer loop
      vertex   3.124412e+01 1.800000e+01 -4.582446e+01
      vertex   2.874412e+01 1.800000e+01 -8.424464e+00
      vertex   3.124412e+01 1.800000e+01 -8.424464e+00
    endloop
  endfacet
  facet normal 6.229093e-17 -9.974521e-01 7.133918e-02
    outer loop
      vertex   2.874412e+01 2.475138e-07 -8.424464e+00
      vertex   3.124412e+01 2.475138e-07 -8.424464e+00
      vertex   2.874412e+01 8.143094e-03 -8.310612e+00
    endloop
  endfacet
  facet normal 8.305457e-17 -9.974521e-01 7.133918e-02
    outer loop
      vertex   2.874412e+01 8.143094e-03 -8.310612e+00
      vertex   3.124412e+01 2.475138e-07 -8.424464e+00
      vertex   3.124412e+01 8.143094e-03 -8.310612e+00
    endloop
  endfacet
  facet normal 8.136382e-17 -9.771469e-01 2.125653e-01
    outer loop
      vertex   2.874412e+01 8.143094e-03 -8.310612e+00
      vertex   3.124412e+01 8.143094e-03 -8.310612e+00
      vertex   2.874412e+01 3.240587e-02 -8.199078e+00
    endloop
  endfacet
  facet normal 4.068191e-17 -9.771469e-01 2.125653e-01
    outer loop
      vertex   2.874412e+01 3.240587e-02 -8.199078e+00
      vertex   3.124412e+01 8.143094e-03 -8.310612e+00
      vertex   3.124412e+01 3.240587e-02 -8.199078e+00
    endloop
  endfacet
  facet normal 3.900837e-17 -9.369497e-01 3.494642e-01
    outer loop
      vertex   2.874412e+01 3.240587e-02 -8.199078e+00
      vertex   3.124412e+01 3.240587e-02 -8.199078e+00
      vertex   2.874412e+01 7.229465e-02 -8.092132e+00
    endloop
  endfacet
  facet normal 5.201116e-17 -9.369497e-01 3.494642e-01
    outer loop
      vertex   2.874412e+01 7.229465e-02 -8.092132e+00
      vertex   3.124412e+01 3.240587e-02 -8.199078e+00
      vertex   3.124412e+01 7.229465e-02 -8.092132e+00
    endloop
  endfacet
  facet normal 4.872097e-17 -8.776790e-01 4.792490e-01
    outer loop
      vertex   2.874412e+01 7.229465e-02 -8.092132e+00
      vertex   3.124412e+01 7.229465e-02 -8.092132e+00
      vertex   2.874412e+01 1.269974e-01 -7.991952e+00
    endloop
  endfacet
  facet normal 4.872097e-17 -8.776790e-01 4.792490e-01
    outer loop
      vertex   2.874412e+01 1.269974e-01 -7.991952e+00
      vertex   3.124412e+01 7.229465e-02 -8.092132e+00
      vertex   3.124412e+01 1.269974e-01 -7.991952e+00
    endloop
  endfacet
  facet normal 4.443897e-17 -8.005412e-01 5.992777e-01
    outer loop
      vertex   2.874412e+01 1.269974e-01 -7.991952e+00
      vertex   3.124412e+01 1.269974e-01 -7.991952e+00
      vertex   2.874412e+01 1.954006e-01 -7.900576e+00
    endloop
  endfacet
  facet normal 4.443897e-17 -8.005412e-01 5.992777e-01
    outer loop
      vertex   2.874412e+01 1.954006e-01 -7.900576e+00
      vertex   3.124412e+01 1.269974e-01 -7.991952e+00
      vertex   3.124412e+01 1.954006e-01 -7.900576e+00
    endloop
  endfacet
  facet normal 3.925231e-17 -7.071068e-01 7.071068e-01
    outer loop
      vertex   2.874412e+01 1.954006e-01 -7.900576e+00
      vertex   3.124412e+01 1.954006e-01 -7.900576e+00
      vertex   2.874412e+01 2.761117e-01 -7.819865e+00
    endloop
  endfacet
  facet normal 3.140185e-17 -7.071068e-01 7.071068e-01
    outer loop
      vertex   2.874412e+01 2.761117e-01 -7.819865e+00
      vertex   3.124412e+01 1.954006e-01 -7.900576e+00
      vertex   3.124412e+01 2.761117e-01 -7.819865e+00
    endloop
  endfacet
  facet normal 2.661327e-17 -5.992777e-01 8.005412e-01
    outer loop
      vertex   2.874412e+01 2.761117e-01 -7.819865e+00
      vertex   3.124412e+01 2.761117e-01 -7.819865e+00
      vertex   2.874412e+01 3.674876e-01 -7.751461e+00
    endloop
  endfacet
  facet normal 2.661327e-17 -5.992777e-01 8.005412e-01
    outer loop
      vertex   2.874412e+01 3.674876e-01 -7.751461e+00
      vertex   3.124412e+01 2.761117e-01 -7.819865e+00
      vertex   3.124412e+01 3.674876e-01 -7.751461e+00
    endloop
  endfacet
  facet normal 2.128293e-17 -4.792490e-01 8.776790e-01
    outer loop
      vertex   2.874412e+01 3.674876e-01 -7.751461e+00
      vertex   3.124412e+01 3.674876e-01 -7.751461e+00
      vertex   2.874412e+01 4.676682e-01 -7.696759e+00
    endloop
  endfacet
  facet normal 3.192440e-17 -4.792490e-01 8.776790e-01
    outer loop
      vertex   2.874412e+01 4.676682e-01 -7.696759e+00
      vertex   3.124412e+01 3.674876e-01 -7.751461e+00
      vertex   3.124412e+01 4.676682e-01 -7.696759e+00
    endloop
  endfacet
  facet normal 2.327899e-17 -3.494642e-01 9.369497e-01
    outer loop
      vertex   2.874412e+01 4.676682e-01 -7.696759e+00
      vertex   3.124412e+01 4.676682e-01 -7.696759e+00
      vertex   2.874412e+01 5.746142e-01 -7.656870e+00
    endloop
  endfacet
  facet normal 1.551933e-17 -3.494642e-01 9.369497e-01
    outer loop
      vertex   2.874412e+01 5.746142e-01 -7.656870e+00
      vertex   3.124412e+01 4.676682e-01 -7.696759e+00
      vertex   3.124412e+01 5.746142e-01 -7.656870e+00
    endloop
  endfacet
  facet normal 9.439795e-18 -2.125653e-01 9.771469e-01
    outer loop
      vertex   2.874412e+01 5.746142e-01 -7.656870e+00
      vertex   3.124412e+01 5.746142e-01 -7.656870e+00
      vertex   2.874412e+01 6.861484e-01 -7.632607e+00
    endloop
  endfacet
  facet normal 3.565921e-16 -2.125653e-01 9.771469e-01
    outer loop
      vertex   2.874412e+01 6.861484e-01 -7.632607e+00
      vertex   3.124412e+01 5.746142e-01 -7.656870e+00
      vertex   3.124412e+01 6.861484e-01 -7.632607e+00
    endloop
  endfacet
  facet normal 3.575343e-16 -7.133918e-02 9.974521e-01
    outer loop
      vertex   2.874412e+01 6.861484e-01 -7.632607e+00
      vertex   3.124412e+01 6.861484e-01 -7.632607e+00
      vertex   2.874412e+01 8.000002e-01 -7.624464e+00
    endloop
  endfacet
  facet normal 3.168096e-18 -7.133918e-02 9.974521e-01
    outer loop
      vertex   2.874412e+01 8.000002e-01 -7.624464e+00
      vertex   3.124412e+01 6.861484e-01 -7.632607e+00
      vertex   3.124412e+01 8.000002e-01 -7.624464e+00
    endloop
  endfacet
  facet normal -0.000000e+00 0.000000e+00 1.000000e+00
    outer loop
      vertex   2.874412e+01 1.720000e+01 -7.624464e+00
      vertex   2.874412e+01 8.000002e-01 -7.624464e+00
      vertex   3.124412e+01 1.720000e+01 -7.624464e+00
    endloop
  endfacet
  facet normal 0.000000e+00 0.000000e+00 1.000000e+00
    outer loop
      vertex   3.124412e+01 1.720000e+01 -7.624464e+00
      vertex   2.874412e+01 8.000002e-01 -7.624464e+00
      vertex   3.124412e+01 8.000002e-01 -7.624464e+00
    endloop
  endfacet
  facet normal -1.000000e+00 -0.000000e+00 0.000000e+00
    outer loop
      vertex   2.874412e+01 1.799186e+01 -4.593832e+01
      vertex   2.874412e+01 1.796759e+01 -4.604985e+01
      vertex   2.874412e+01 1.800000e+01 -4.582446e+01
    endloop
  endfacet
  facet normal -1.000000e+00 0.000000e+00 0.000000e+00
    outer loop
      vertex   2.874412e+01 1.800000e+01 -4.582446e+01
      vertex   2.874412e+01 1.796759e+01 -4.604985e+01
      vertex   2.874412e+01 1.792771e+01 -4.615680e+01
    endloop
  endfacet
  facet normal -1.000000e+00 0.000000e+00 0.000000e+00
    outer loop
      vertex   2.874412e+01 1.800000e+01 -4.582446e+01
      vertex   2.874412e+01 1.792771e+01 -4.615680e+01
      vertex   2.874412e+01 1.787300e+01 -4.625698e+01
    endloop
  endfacet
  facet normal -1.000000e+00 -0.000000e+00 0.000000e+00
    outer loop
      vertex   2.874412e+01 1.787300e+01 -4.625698e+01
      vertex   2.874412e+01 1.780460e+01 -4.634835e+01
      vertex   2.874412e+01 1.800000e+01 -4.582446e+01
    endloop
  endfacet
  facet normal -1.000000e+00 0.000000e+00 0.000000e+00
    outer loop
      vertex   2.874412e+01 1.800000e+01 -4.582446e+01
      vertex   2.874412e+01 1.780460e+01 -4.634835e+01
      vertex   2.874412e+01 1.772389e+01 -4.642906e+01
    endloop
  endfacet
  facet normal -1.000000e+00 0.000000e+00 0.000000e+00
    outer loop
      vertex   2.874412e+01 1.800000e+01 -4.582446e+01
      vertex   2.874412e+01 1.772389e+01 -4.642906e+01
      vertex   2.874412e+01 1.763251e+01 -4.649747e+01
    endloop
  endfacet
  facet normal -1.000000e+00 -0.000000e+00 0.000000e+00
    outer loop
      vertex   2.874412e+01 1.763251e+01 -4.649747e+01
      vertex   2.874412e+01 1.753233e+01 -4.655217e+01
      vertex   2.874412e+01 1.800000e+01 -4.582446e+01
    endloop
  endfacet
  facet normal -1.000000e+00 0.000000e+00 0.000000e+00
    outer loop
      vertex   2.874412e+01 1.800000e+01 -4.582446e+01
      vertex   2.874412e+01 1.753233e+01 -4.655217e+01
      vertex   2.874412e+01 1.742539e+01 -4.659206e+01
    endloop
  endfacet
  facet normal -1.000000e+00 0.000000e+00 0.000000e+00
    outer loop
      vertex   2.874412e+01 1.800000e+01 -4.582446e+01
      vertex   2.874412e+01 1.742539e+01 -4.659206e+01
      vertex   2.874412e+01 1.731385e+01 -4.661632e+01
    endloop
  endfacet
  facet normal -1.000000e+00 -3.326634e-14 2.882545e-14
    outer loop
      vertex   2.874412e+01 1.731385e+01 -4.661632e+01
      vertex   2.874412e+01 1.720000e+01 -4.662446e+01
      vertex   2.874412e+01 1.800000e+01 -4.582446e+01
    endloop
  endfacet
  facet normal -1.000000e+00 -4.349797e-15 -9.109522e-17
    outer loop
      vertex   2.874412e+01 1.800000e+01 -4.582446e+01
      vertex   2.874412e+01 1.720000e+01 -4.662446e+01
      vertex   2.874412e+01 1.720000e+01 -7.624464e+00
    endloop
  endfacet
  facet normal -1.000000e+00 0.000000e+00 0.000000e+00
    outer loop
      vertex   2.874412e+01 1.800000e+01 -4.582446e+01
      vertex   2.874412e+01 1.720000e+01 -7.624464e+00
      vertex   2.874412e+01 1.800000e+01 -8.424464e+00
    endloop
  endfacet
  facet normal -1.000000e+00 0.000000e+00 0.000000e+00
    outer loop
      vertex   2.874412e+01 1.800000e+01 -8.424464e+00
      vertex   2.874412e+01 1.720000e+01 -7.624464e+00
      vertex   2.874412e+01 1.731385e+01 -7.632607e+00
    endloop
  endfacet
  facet normal -1.000000e+00 0.000000e+00 0.000000e+00
    outer loop
      vertex   2.874412e+01 1.800000e+01 -8.424464e+00
      vertex   2.874412e+01 1.731385e+01 -7.632607e+00
      vertex   2.874412e+01 1.742539e+01 -7.656870e+00
    endloop
  endfacet
  facet normal -1.000000e+00 -0.000000e+00 -9.109522e-17
    outer loop
      vertex   2.874412e+01 1.720000e+01 -7.624464e+00
      vertex   2.874412e+01 1.720000e+01 -4.662446e+01
      vertex   2.874412e+01 8.000002e-01 -7.624464e+00
    endloop
  endfacet
  facet normal -1.000000e+00 0.000000e+00 -9.109522e-17
    outer loop
      vertex   2.874412e+01 8.000002e-01 -7.624464e+00
      vertex   2.874412e+01 1.720000e+01 -4.662446e+01
      vertex   2.874412e+01 8.000002e-01 -4.662446e+01
    endloop
  endfacet
  facet normal -1.000000e+00 -4.349797e-15 -9.109522e-17
    outer loop
      vertex   2.874412e+01 8.000002e-01 -7.624464e+00
      vertex   2.874412e+01 8.000002e-01 -4.662446e+01
      vertex   2.874412e+01 2.475138e-07 -8.424464e+00
    endloop
  endfacet
  facet normal -1.000000e+00 0.000000e+00 0.000000e+00
    outer loop
      vertex   2.874412e+01 2.475138e-07 -8.424464e+00
      vertex   2.874412e+01 8.000002e-01 -4.662446e+01
      vertex   2.874412e+01 2.475138e-07 -4.582446e+01
    endloop
  endfacet
  facet normal -1.000000e+00 3.360842e-14 3.360842e-14
    outer loop
      vertex   2.874412e+01 2.475138e-07 -4.582446e+01
      vertex   2.874412e+01 8.000002e-01 -4.662446e+01
      vertex   2.874412e+01 6.861484e-01 -4.661632e+01
    endloop
  endfacet
  facet normal -1.000000e+00 1.202695e-15 5.528700e-15
    outer loop
      vertex   2.874412e+01 2.475138e-07 -4.582446e+01
      vertex   2.874412e+01 6.861484e-01 -4.661632e+01
      vertex   2.874412e+01 5.746142e-01 -4.659206e+01
    endloop
  endfacet
  facet normal -1.000000e+00 2.395002e-15 6.421250e-15
    outer loop
      vertex   2.874412e+01 5.746142e-01 -4.659206e+01
      vertex   2.874412e+01 4.676682e-01 -4.655217e+01
      vertex   2.874412e+01 2.475138e-07 -4.582446e+01
    endloop
  endfacet
  facet normal -1.000000e+00 4.107063e-15 7.521525e-15
    outer loop
      vertex   2.874412e+01 2.475138e-07 -4.582446e+01
      vertex   2.874412e+01 4.676682e-01 -4.655217e+01
      vertex   2.874412e+01 3.674876e-01 -4.649747e+01
    endloop
  endfacet
  facet normal -1.000000e+00 6.683823e-15 8.928542e-15
    outer loop
      vertex   2.874412e+01 2.475138e-07 -4.582446e+01
      vertex   2.874412e+01 3.674876e-01 -4.649747e+01
      vertex   2.874412e+01 2.761117e-01 -4.642906e+01
    endloop
  endfacet
  facet normal -1.000000e+00 1.081534e-14 1.081534e-14
    outer loop
      vertex   2.874412e+01 2.761117e-01 -4.642906e+01
      vertex   2.874412e+01 1.954006e-01 -4.634835e+01
      vertex   2.874412e+01 2.475138e-07 -4.582446e+01
    endloop
  endfacet
  facet normal -1.000000e+00 1.805445e-14 1.351539e-14
    outer loop
      vertex   2.874412e+01 2.475138e-07 -4.582446e+01
      vertex   2.874412e+01 1.954006e-01 -4.634835e+01
      vertex   2.874412e+01 1.269974e-01 -4.625698e+01
    endloop
  endfacet
  facet normal -1.000000e+00 3.254217e-14 1.776937e-14
    outer loop
      vertex   2.874412e+01 2.475138e-07 -4.582446e+01
      vertex   2.874412e+01 1.269974e-01 -4.625698e+01
      vertex   2.874412e+01 7.229465e-02 -4.615680e+01
    endloop
  endfacet
  facet normal -1.000000e+00 6.877237e-14 2.565077e-14
    outer loop
      vertex   2.874412e+01 7.229465e-02 -4.615680e+01
      vertex   2.874412e+01 3.240587e-02 -4.604985e+01
      vertex   2.874412e+01 2.475138e-07 -4.582446e+01
    endloop
  endfacet
  facet normal -1.000000e+00 2.137085e-13 4.648943e-14
    outer loop
      vertex   2.874412e+01 2.475138e-07 -4.582446e+01
      vertex   2.874412e+01 3.240587e-02 -4.604985e+01
      vertex   2.874412e+01 8.143094e-03 -4.593832e+01
    endloop
  endfacet
  facet normal -1.000000e+00 2.137085e-13 -4.648943e-14
    outer loop
      vertex   2.874412e+01 8.143094e-03 -8.310612e+00
      vertex   2.874412e+01 3.240587e-02 -8.199078e+00
      vertex   2.874412e+01 2.475138e-07 -8.424464e+00
    endloop
  endfacet
  facet normal -1.000000e+00 6.877237e-14 -2.565077e-14
    outer loop
      vertex   2.874412e+01 2.475138e-07 -8.424464e+00
      vertex   2.874412e+01 3.240587e-02 -8.199078e+00
      vertex   2.874412e+01 7.229465e-02 -8.092132e+00
    endloop
  endfacet
  facet normal -1.000000e+00 3.254217e-14 -1.776937e-14
    outer loop
      vertex   2.874412e+01 2.475138e-07 -8.424464e+00
      vertex   2.874412e+01 7.229465e-02 -8.092132e+00
      vertex   2.874412e+01 1.269974e-01 -7.991952e+00
    endloop
  endfacet
  facet normal -1.000000e+00 1.805445e-14 -1.351539e-14
    outer loop
      vertex   2.874412e+01 1.269974e-01 -7.991952e+00
      vertex   2.874412e+01 1.954006e-01 -7.900576e+00
      vertex   2.874412e+01 2.475138e-07 -8.424464e+00
    endloop
  endfacet
  facet normal -1.000000e+00 1.081534e-14 -1.081534e-14
    outer loop
      vertex   2.874412e+01 2.475138e-07 -8.424464e+00
      vertex   2.874412e+01 1.954006e-01 -7.900576e+00
      vertex   2.874412e+01 2.761117e-01 -7.819865e+00
    endloop
  endfacet
  facet normal -1.000000e+00 6.683823e-15 -8.928542e-15
    outer loop
      vertex   2.874412e+01 2.475138e-07 -8.424464e+00
      vertex   2.874412e+01 2.761117e-01 -7.819865e+00
      vertex   2.874412e+01 3.674876e-01 -7.751461e+00
    endloop
  endfacet
  facet normal -1.000000e+00 4.107063e-15 -7.521525e-15
    outer loop
      vertex   2.874412e+01 3.674876e-01 -7.751461e+00
      vertex   2.874412e+01 4.676682e-01 -7.696759e+00
      vertex   2.874412e+01 2.475138e-07 -8.424464e+00
    endloop
  endfacet
  facet normal -1.000000e+00 2.395002e-15 -6.421250e-15
    outer loop
      vertex   2.874412e+01 2.475138e-07 -8.424464e+00
      vertex   2.874412e+01 4.676682e-01 -7.696759e+00
      vertex   2.874412e+01 5.746142e-01 -7.656870e+00
    endloop
  endfacet
  facet normal -1.000000e+00 1.202695e-15 -5.528700e-15
    outer loop
      vertex   2.874412e+01 2.475138e-07 -8.424464e+00
      vertex   2.874412e+01 5.746142e-01 -7.656870e+00
      vertex   2.874412e+01 6.861484e-01 -7.632607e+00
    endloop
  endfacet
  facet normal -1.000000e+00 3.420853e-16 -4.782977e-15
    outer loop
      vertex   2.874412e+01 6.861484e-01 -7.632607e+00
      vertex   2.874412e+01 8.000002e-01 -7.624464e+00
      vertex   2.874412e+01 2.475138e-07 -8.424464e+00
    endloop
  endfacet
  facet normal -1.000000e+00 0.000000e+00 0.000000e+00
    outer loop
      vertex   2.874412e+01 1.742539e+01 -7.656870e+00
      vertex   2.874412e+01 1.753233e+01 -7.696759e+00
      vertex   2.874412e+01 1.800000e+01 -8.424464e+00
    endloop
  endfacet
  facet normal -1.000000e+00 0.000000e+00 0.000000e+00
    outer loop
      vertex   2.874412e+01 1.800000e+01 -8.424464e+00
      vertex   2.874412e+01 1.753233e+01 -7.696759e+00
      vertex   2.874412e+01 1.763251e+01 -7.751461e+00
    endloop
  endfacet
  facet normal -1.000000e+00 0.000000e+00 0.000000e+00
    outer loop
      vertex   2.874412e+01 1.800000e+01 -8.424464e+00
      vertex   2.874412e+01 1.763251e+01 -7.751461e+00
      vertex   2.874412e+01 1.772389e+01 -7.819865e+00
    endloop
  endfacet
  facet normal -1.000000e+00 0.000000e+00 0.000000e+00
    outer loop
      vertex   2.874412e+01 1.772389e+01 -7.819865e+00
      vertex   2.874412e+01 1.780460e+01 -7.900576e+00
      vertex   2.874412e+01 1.800000e+01 -8.424464e+00
    endloop
  endfacet
  facet normal -1.000000e+00 0.000000e+00 0.000000e+00
    outer loop
      vertex   2.874412e+01 1.800000e+01 -8.424464e+00
      vertex   2.874412e+01 1.780460e+01 -7.900576e+00
      vertex   2.874412e+01 1.787300e+01 -7.991952e+00
    endloop
  endfacet
  facet normal -1.000000e+00 0.000000e+00 0.000000e+00
    outer loop
      vertex   2.874412e+01 1.800000e+01 -8.424464e+00
      vertex   2.874412e+01 1.787300e+01 -7.991952e+00
      vertex   2.874412e+01 1.792771e+01 -8.092132e+00
    endloop
  endfacet
  facet normal -1.000000e+00 0.000000e+00 0.000000e+00
    outer loop
      vertex   2.874412e+01 1.792771e+01 -8.092132e+00
      vertex   2.874412e+01 1.796759e+01 -8.199078e+00
      vertex   2.874412e+01 1.800000e+01 -8.424464e+00
    endloop
  endfacet
  facet normal -1.000000e+00 0.000000e+00 0.000000e+00
    outer loop
      vertex   2.874412e+01 1.800000e+01 -8.424464e+00
      vertex   2.874412e+01 1.796759e+01 -8.199078e+00
      vertex   2.874412e+01 1.799186e+01 -8.310612e+00
    endloop
  endfacet
endsolid
